Coordinates
version=1
nRows=54
nColumns=12
inDegrees=yes

Units are S.I. units (second, meters, Newtons, ...)
Angles are in degrees

endheader
time	SC_y	SC_z	SC_x	AC_y	AC_z	AC_x	GH_y	GH_z	GH_yy	EL_x	PS_y
       0.0              -34.08          30.51           39.6          53.13          7.886         -1.525          102.0          13.84         -57.04          114.8          104.3
   0.04769              -34.08          30.51          39.59          53.13          7.882         -1.523          102.0          13.84         -57.04          114.8          104.3
   0.09539              -34.08           30.5          39.59          53.13          7.878          -1.52          101.9          13.85         -57.03          114.8          104.3
    0.1431              -34.08           30.5          39.59          53.13          7.874         -1.518          101.9          13.86         -57.03          114.8          104.3
    0.1908              -34.08           30.5          39.59          53.12          7.869         -1.515          101.9          13.87         -57.02          114.8          104.3
    0.2385              -34.08           30.5          39.58          53.12          7.864         -1.512          101.8          13.88         -57.02          114.8          104.3
    0.2862              -34.08          30.49          39.58          53.12          7.858         -1.509          101.7          13.89         -57.01          114.8          104.3
    0.3339              -34.08          30.49          39.57          53.12          7.852         -1.506          101.7           13.9         -57.01          114.8          104.3
    0.3816              -34.08          30.49          39.57          53.12          7.846         -1.502          101.6          13.92          -57.0          114.8          104.3
    0.4293              -34.08          30.48          39.57          53.12          7.839         -1.499          101.6          13.93         -56.99          114.8          104.3
    0.4769              -34.08          30.48          39.56          53.11          7.832         -1.495          101.5          13.94         -56.98          114.7          104.3
    0.5246              -34.08          30.47          39.56          53.11          7.824          -1.49          101.4          13.96         -56.98          114.7          104.3
    0.5723              -34.08          30.47          39.55          53.11          7.816         -1.486          101.3          13.98         -56.97          114.7          104.4
      0.62              -34.08          30.46          39.55          53.11          7.806         -1.481          101.2          13.99         -56.96          114.7          104.4
    0.6677              -34.07          30.46          39.54          53.11          7.797         -1.475          101.1          14.01         -56.94          114.7          104.4
    0.7154              -34.07          30.45          39.53           53.1          7.786         -1.469          101.0          14.03         -56.93          114.7          104.4
    0.7631              -34.07          30.45          39.53           53.1          7.774         -1.463          100.9          14.06         -56.92          114.7          104.4
    0.8108              -34.07          30.44          39.52           53.1          7.762         -1.456          100.8          14.08         -56.91          114.7          104.4
    0.8585              -34.07          30.43          39.51          53.09          7.748         -1.448          100.6          14.11         -56.89          114.6          104.4
    0.9062              -34.07          30.42           39.5          53.09          7.733          -1.44          100.5          14.14         -56.87          114.6          104.4
    0.9539              -34.07          30.41          39.49          53.08          7.716         -1.431          100.3          14.17         -56.86          114.6          104.5
     1.002              -34.07           30.4          39.48          53.08          7.698         -1.421          100.1          14.21         -56.84          114.6          104.5
     1.049              -34.06          30.39          39.47          53.07          7.678         -1.409           99.9          14.25         -56.81          114.5          104.5
     1.097              -34.06          30.38          39.45          53.07          7.655         -1.397          99.67          14.29         -56.79          114.5          104.5
     1.145              -34.06          30.37          39.44          53.06           7.63         -1.383          99.42          14.34         -56.76          114.5          104.6
     1.192              -34.06          30.35          39.42          53.05          7.603         -1.368          99.14           14.4         -56.73          114.5          104.6
      1.24              -34.05          30.33           39.4          53.05          7.571         -1.351          98.82          14.46          -56.7          114.4          104.6
     1.288              -34.05          30.31          39.38          53.04          7.536         -1.331          98.46          14.53         -56.66          114.4          104.7
     1.335              -34.05          30.29          39.35          53.03          7.497         -1.309          98.06           14.6         -56.61          114.3          104.7
     1.383              -34.04          30.26          39.33          53.02          7.452         -1.285           97.6          14.69         -56.57          114.3          104.7
     1.431              -34.04          30.24           39.3           53.0          7.401         -1.256          97.08          14.79         -56.51          114.2          104.8
     1.479              -34.03           30.2          39.26          52.99          7.342         -1.224          96.48          14.91         -56.44          114.1          104.9
     1.526              -34.03          30.16          39.22          52.97          7.274         -1.186          95.78          15.04         -56.37          114.0          104.9
     1.574              -34.02          30.12          39.17          52.95          7.195         -1.142          94.98           15.2         -56.28          113.9          105.0
     1.622              -34.01          30.07          39.11          52.92          7.103         -1.091          94.04          15.38         -56.18          113.8          105.1
     1.669               -34.0          30.01          39.04           52.9          6.994         -1.031          92.93          15.59         -56.06          113.7          105.2
     1.717              -33.99          29.93          38.96          52.86          6.865        -0.9597          91.61          15.85         -55.92          113.5          105.4
     1.765              -33.98          29.85          38.87          52.82           6.71         -0.874          90.03          16.15         -55.75          113.3          105.5
     1.812              -33.96          29.74          38.75          52.77          6.523        -0.7702          88.11          16.52         -55.54          113.1          105.7
      1.86              -33.94          29.61          38.61          52.71          6.294        -0.6435          85.77          16.97         -55.29          112.8          106.0
     1.908              -33.91          29.45          38.43          52.64          6.011        -0.4871          82.89          17.53         -54.98          112.4          106.3
     1.955              -33.88          29.26          38.22          52.55          5.659        -0.2921          79.29          18.22         -54.59          111.9          106.6
     2.003              -33.84          29.01          37.94          52.43          5.215       -0.04641          74.76          19.09          -54.1          111.4          107.1
     2.051              -33.79          28.69          37.59          52.29          4.651         0.2659           69.0          20.21         -53.48          110.6          107.7
     2.099              -33.73          28.28          37.14           52.1          3.928         0.6656          61.62          21.63         -52.69          109.7          108.5
     2.146              -33.64          27.76          36.57          51.86          3.002          1.179          52.16          23.45         -51.67          108.5          109.5
     2.194              -33.54           27.1          35.83          51.55          1.818          1.834          40.07          25.78         -50.36          107.0          110.7
     2.242               -33.4          26.26          34.91          51.16         0.3289          2.658          24.87          28.71         -48.72          105.0          112.3
     2.289              -33.24          25.24          33.79          50.69         -1.485          3.662          6.343          32.28         -46.72          102.7          114.2
     2.337              -33.05          24.06          32.48          50.14         -3.588          4.826         -15.13          36.42         -44.41          99.98          116.5
     2.385              -32.84          22.78          31.07          49.55         -5.865          6.086         -38.38           40.9          -41.9          97.03          118.9
     2.432              -32.64          21.49          29.66          48.96         -8.142          7.346         -61.63          45.38          -39.4          94.09          121.3
      2.48              -32.45          20.31          28.36          48.41         -10.24           8.51          -83.1          49.52         -37.08          91.37          123.5
     2.528              -32.28          19.29          27.23          47.94         -12.06          9.514         -101.6          53.09         -35.08          89.02          125.4
